<?xml version="1.0" encoding="UTF-8"?>
<svg xmlns="http://www.w3.org/2000/svg" viewBox="0 0 60 60" width="60" height="60">
  <title>LoomCycle Interruption</title>
  <rect x="2.75" y="2.75" width="54.5" height="54.5" rx="12" fill="#FAF8F3" stroke="#56C596" stroke-width="1.5"/>
  <g transform="translate(30 30) scale(1.25) translate(-30 -30)">
    <path d="M17 15 H43 a3 3 0 0 1 3 3 V33 a3 3 0 0 1 -3 3 H27 l-7 6 v-6 h-3 a3 3 0 0 1 -3 -3 V18 a3 3 0 0 1 3 -3 Z" fill="none" stroke="#56C596" stroke-width="2.5" stroke-linejoin="round"/>
    <path d="M26.5 22 a3.5 3.5 0 1 1 5 3.2 c-1.3 0.9 -1.5 1.6 -1.5 3" fill="none" stroke="#56C596" stroke-width="2.5" stroke-linecap="round" stroke-linejoin="round"/>
    <circle cx="30" cy="31.5" r="1.5" fill="#56C596"/>
  </g>
</svg>
